<?xml version="1.0" encoding="UTF-8"?><svg id="Calque_2" xmlns="http://www.w3.org/2000/svg" viewBox="0 0 662.44 102.06"><g id="Calque_1-2"><g><path d="M96.44,10.21c0-.08,0-.15,0-.23,0-.9-.59-1.69-1.44-1.98l-.4-.13c-5.98-1.71-11.6-3.34-17.51-4.66C68.27,1.42,59.33,.35,50.33,0h-4.2c-9,.35-17.95,1.42-26.77,3.21C13.48,4.53,7.83,6.16,1.83,7.9l-.4,.1C.58,8.29,0,9.1,0,10c0,.08,0,.15,0,.23,.65,4.64,1.5,9.22,2.54,13.71,.62,2.62,1.36,5.32,2.17,8.06,4.48,14.51,11.84,30.9,17.54,40.14,5,8.1,15.14,20.55,23.72,29,.6,.59,1.41,.92,2.25,.92,.84,0,1.65-.33,2.25-.92,8.59-8.41,18.73-20.86,23.73-29,5.7-9.26,13.06-25.65,17.54-40.14,.81-2.72,1.55-5.42,2.16-8.06,1.04-4.51,1.89-9.09,2.54-13.73Zm-21.44,14.59c-1.44,6.42-3.69,12.64-6.69,18.5-1.65,3.47-3.55,6.81-5.69,10,3.33,4.24,6.26,8.78,8.74,13.57l-.26-.3,.16,.3-22.47-25.68c-.32-.29-.81-.29-1.13,0l-22.43,25.72,.16-.3-.26,.3c2.48-4.79,5.41-9.33,8.74-13.57-2.14-3.19-4.04-6.53-5.69-10-3.15-5.79-5.41-12.03-6.69-18.5-1.57-8.35-.91-10.06,1.65-11.36,5.63-2.87,25.09-3,25.09-3,9.3,0,19.35,.37,25.08,3,2.6,1.17,3.63,2.9,1.69,11.32Z"/><g><path d="M135.28,87.55L117.73,20.51h15.12l13.23,56.16h-4.05l13.95-56.16h14.4l13.95,56.16h-4.05l13.23-56.16h15.12l-17.55,67.05h-16.2l-14.04-54h4.68l-14.04,54h-16.2Z"/><path d="M212.32,87.55V19.43h13.5v28.71l-1.62-2.16c1.14-2.94,2.98-5.11,5.54-6.53,2.55-1.41,5.53-2.11,8.95-2.11,3.72,0,6.98,.78,9.77,2.34,2.79,1.56,4.96,3.74,6.52,6.52,1.56,2.79,2.34,6.05,2.34,9.77v31.59h-13.5v-28.71c0-1.92-.38-3.57-1.12-4.95-.75-1.38-1.8-2.46-3.15-3.24-1.35-.78-2.92-1.17-4.72-1.17s-3.3,.39-4.68,1.17c-1.38,.78-2.45,1.86-3.19,3.24-.75,1.38-1.12,3.03-1.12,4.95v28.71h-13.5Z"/><path d="M263.98,34.01v-13.5h13.5v13.5h-13.5Zm0,53.55V38.42h13.5v49.14h-13.5Z"/><path d="M308.8,88.09c-5.94,0-10.55-1.6-13.81-4.82-3.27-3.21-4.91-7.69-4.91-13.46v-19.71h-8.28v-11.7h.45c2.52,0,4.46-.63,5.81-1.89,1.35-1.26,2.02-3.15,2.02-5.67v-3.6h13.5v11.16h11.52v11.7h-11.52v18.81c0,1.68,.3,3.08,.9,4.18,.6,1.11,1.53,1.94,2.79,2.48,1.26,.54,2.82,.81,4.68,.81,.42,0,.9-.03,1.44-.09,.54-.06,1.11-.12,1.71-.18v11.52c-.9,.12-1.92,.23-3.06,.32-1.14,.09-2.22,.13-3.24,.13Z"/><path d="M344.44,88.63c-5.22,0-9.75-1.15-13.59-3.46-3.84-2.31-6.81-5.41-8.91-9.32-2.1-3.9-3.15-8.22-3.15-12.96s1.09-9.3,3.28-13.14c2.19-3.84,5.14-6.87,8.87-9.09,3.72-2.22,7.92-3.33,12.6-3.33,3.9,0,7.35,.62,10.35,1.84,3,1.23,5.54,2.96,7.6,5.17,2.07,2.22,3.65,4.79,4.73,7.7,1.08,2.91,1.62,6.08,1.62,9.5,0,.96-.04,1.91-.13,2.83-.09,.93-.26,1.73-.49,2.38h-36.81v-9.9h29.16l-6.39,4.68c.6-2.58,.57-4.87-.09-6.88-.66-2.01-1.82-3.6-3.46-4.77-1.65-1.17-3.68-1.75-6.07-1.75s-4.35,.57-6.03,1.71c-1.68,1.14-2.94,2.82-3.78,5.04-.84,2.22-1.17,4.92-.99,8.1-.24,2.76,.09,5.19,.99,7.29,.9,2.1,2.28,3.74,4.14,4.91,1.86,1.17,4.11,1.75,6.75,1.75,2.4,0,4.46-.48,6.17-1.44s3.04-2.28,4.01-3.96l10.8,5.13c-.96,2.4-2.47,4.5-4.54,6.3s-4.52,3.2-7.33,4.18c-2.82,.99-5.91,1.49-9.27,1.49Z"/><path d="M411.49,88.63c-4.32,0-8.09-.76-11.29-2.29-3.21-1.53-5.71-3.7-7.51-6.53-1.8-2.82-2.7-6.09-2.7-9.81,0-3.12,.55-5.82,1.67-8.1,1.11-2.28,2.47-4.2,4.09-5.76,1.62-1.56,3.22-2.83,4.82-3.83,1.59-.99,2.89-1.75,3.91-2.29l6.3-3.24c1.98-1.02,3.75-2.01,5.31-2.97,1.56-.96,2.8-2.02,3.74-3.19,.93-1.17,1.39-2.53,1.39-4.1,0-1.8-.58-3.33-1.75-4.59-1.17-1.26-2.66-1.89-4.45-1.89s-3.23,.62-4.46,1.84c-1.23,1.23-1.85,2.81-1.85,4.72,0,1.44,.33,2.85,.99,4.23,.66,1.38,1.42,2.64,2.29,3.78,.87,1.14,1.67,2.13,2.38,2.97l35.1,39.96h-15.66l-28.89-32.4c-1.38-1.56-2.75-3.21-4.1-4.95s-2.46-3.67-3.33-5.81c-.87-2.13-1.3-4.51-1.3-7.15,0-3.66,.87-6.83,2.61-9.5,1.74-2.67,4.02-4.73,6.84-6.17,2.82-1.44,5.88-2.16,9.18-2.16,3.48,0,6.6,.75,9.36,2.25,2.76,1.5,4.95,3.54,6.57,6.12,1.62,2.58,2.43,5.52,2.43,8.82s-.77,6.11-2.29,8.42c-1.53,2.31-3.38,4.25-5.54,5.81-2.16,1.56-4.2,2.88-6.12,3.96l-6.57,3.78c-1.2,.66-2.49,1.5-3.87,2.52-1.38,1.02-2.54,2.24-3.46,3.64-.93,1.41-1.39,3.11-1.39,5.08,0,2.34,.72,4.19,2.16,5.54,1.44,1.35,3.42,2.03,5.94,2.03,1.56,0,2.94-.25,4.14-.76,1.2-.51,2.25-1.14,3.15-1.89,.9-.75,1.67-1.54,2.29-2.38,.63-.84,1.18-1.59,1.67-2.25l10.53-15.21h13.68l-12.15,19.08c-.9,1.44-2,3.01-3.29,4.72-1.29,1.71-2.87,3.32-4.73,4.82-1.86,1.5-4.08,2.73-6.66,3.69-2.58,.96-5.64,1.44-9.18,1.44Z"/><path d="M499.18,88.63c-4.8,0-9.26-.87-13.37-2.61-4.11-1.74-7.7-4.17-10.75-7.29-3.06-3.12-5.45-6.78-7.16-10.98-1.71-4.2-2.56-8.79-2.56-13.77s.84-9.58,2.52-13.81c1.68-4.23,4.05-7.89,7.11-10.98,3.06-3.09,6.64-5.49,10.76-7.2,4.11-1.71,8.59-2.56,13.46-2.56s9.22,.81,13.09,2.43,7.16,3.78,9.85,6.48c2.7,2.7,4.62,5.7,5.76,9l-12.33,5.94c-1.14-3.24-3.14-5.92-5.99-8.05-2.85-2.13-6.32-3.2-10.39-3.2s-7.44,.93-10.44,2.79c-3,1.86-5.33,4.43-6.98,7.7-1.65,3.27-2.47,7.1-2.47,11.47s.82,8.22,2.47,11.52c1.65,3.3,3.97,5.88,6.98,7.74,3,1.86,6.48,2.79,10.44,2.79s7.54-1.07,10.39-3.2c2.85-2.13,4.84-4.82,5.99-8.05l12.33,5.94c-1.14,3.3-3.06,6.3-5.76,9-2.7,2.7-5.98,4.86-9.85,6.48-3.87,1.62-8.24,2.43-13.09,2.43Z"/><path d="M547.87,88.63c-3.54,0-6.6-.57-9.18-1.71-2.58-1.14-4.56-2.77-5.94-4.91-1.38-2.13-2.07-4.66-2.07-7.6,0-2.76,.63-5.21,1.89-7.33,1.26-2.13,3.2-3.92,5.81-5.36,2.61-1.44,5.86-2.46,9.76-3.06l15.03-2.43v9.9l-12.6,2.25c-1.92,.36-3.39,.98-4.41,1.84-1.02,.87-1.53,2.12-1.53,3.74,0,1.5,.57,2.67,1.71,3.51,1.14,.84,2.55,1.26,4.23,1.26,2.22,0,4.17-.48,5.85-1.44,1.68-.96,2.98-2.26,3.92-3.92,.93-1.65,1.39-3.46,1.39-5.45v-12.78c0-1.86-.73-3.42-2.21-4.68s-3.46-1.89-5.98-1.89-4.52,.66-6.35,1.98c-1.83,1.32-3.17,3.06-4,5.22l-10.8-5.13c.96-2.76,2.49-5.13,4.59-7.11,2.1-1.98,4.62-3.51,7.56-4.59,2.94-1.08,6.15-1.62,9.63-1.62,4.14,0,7.8,.75,10.98,2.25,3.18,1.5,5.66,3.59,7.43,6.25,1.77,2.67,2.65,5.78,2.65,9.31v32.4h-12.6v-7.92l3.06-.54c-1.44,2.16-3.03,3.95-4.77,5.35-1.74,1.41-3.69,2.46-5.85,3.15-2.16,.69-4.56,1.04-7.2,1.04Z"/><path d="M582.88,87.55V38.42h12.6v11.79l-.9-1.71c1.08-4.14,2.87-6.94,5.36-8.42,2.49-1.47,5.45-2.21,8.87-2.21h2.88v11.7h-4.23c-3.3,0-5.97,1.01-8.01,3.02-2.04,2.01-3.06,4.85-3.06,8.5v26.46h-13.5Z"/><path d="M639.04,88.63c-5.22,0-9.75-1.15-13.59-3.46-3.84-2.31-6.81-5.41-8.91-9.32-2.1-3.9-3.15-8.22-3.15-12.96s1.09-9.3,3.29-13.14c2.19-3.84,5.14-6.87,8.87-9.09,3.72-2.22,7.92-3.33,12.6-3.33,3.9,0,7.35,.62,10.35,1.84,3,1.23,5.54,2.96,7.61,5.17,2.07,2.22,3.64,4.79,4.72,7.7,1.08,2.91,1.62,6.08,1.62,9.5,0,.96-.04,1.91-.14,2.83-.09,.93-.26,1.73-.5,2.38h-36.81v-9.9h29.16l-6.39,4.68c.6-2.58,.57-4.87-.09-6.88-.66-2.01-1.82-3.6-3.46-4.77-1.65-1.17-3.68-1.75-6.08-1.75s-4.35,.57-6.03,1.71c-1.68,1.14-2.94,2.82-3.78,5.04-.84,2.22-1.17,4.92-.99,8.1-.24,2.76,.09,5.19,.99,7.29,.9,2.1,2.28,3.74,4.14,4.91,1.86,1.17,4.11,1.75,6.75,1.75,2.4,0,4.46-.48,6.17-1.44s3.04-2.28,4-3.96l10.8,5.13c-.96,2.4-2.48,4.5-4.54,6.3-2.07,1.8-4.52,3.2-7.34,4.18-2.82,.99-5.91,1.49-9.27,1.49Z"/></g></g></g></svg>