<?xml version="1.0" encoding="UTF-8"?><svg id="Calque_2" xmlns="http://www.w3.org/2000/svg" viewBox="0 0 96.45 102.06"><g id="Calque_1-2"><path d="M96.44,10.21c0-.08,0-.15,0-.23,0-.9-.59-1.69-1.44-1.98l-.4-.13c-5.98-1.71-11.6-3.34-17.51-4.66C68.27,1.42,59.33,.35,50.33,0h-4.2c-9,.35-17.95,1.42-26.77,3.21C13.48,4.53,7.83,6.16,1.83,7.9l-.4,.1C.58,8.29,0,9.1,0,10c0,.08,0,.15,0,.23,.65,4.64,1.5,9.22,2.54,13.71,.62,2.62,1.36,5.32,2.17,8.06,4.48,14.51,11.84,30.9,17.54,40.14,5,8.1,15.14,20.55,23.72,29,.6,.59,1.41,.92,2.25,.92,.84,0,1.65-.33,2.25-.92,8.59-8.41,18.73-20.86,23.73-29,5.7-9.26,13.06-25.65,17.54-40.14,.81-2.72,1.55-5.42,2.16-8.06,1.04-4.51,1.89-9.09,2.54-13.73Zm-21.44,14.59c-1.44,6.42-3.69,12.64-6.69,18.5-1.65,3.47-3.55,6.81-5.69,10,3.33,4.24,6.26,8.78,8.74,13.57l-.26-.3,.16,.3-22.47-25.68c-.32-.29-.81-.29-1.13,0l-22.43,25.72,.16-.3-.26,.3c2.48-4.79,5.41-9.33,8.74-13.57-2.14-3.19-4.04-6.53-5.69-10-3.15-5.79-5.41-12.03-6.69-18.5-1.57-8.35-.91-10.06,1.65-11.36,5.63-2.87,25.09-3,25.09-3,9.3,0,19.35,.37,25.08,3,2.6,1.17,3.63,2.9,1.69,11.32Z"/></g></svg>