<svg xmlns="http://www.w3.org/2000/svg" viewBox="0 0 511.1 511.1"><path fill="#642eff" d="M387.52,158.2c.01-.21,.01-.42,0-.63-.02-2.48-1.62-4.68-3.98-5.47l-1.1-.36c-16.51-4.72-32.02-9.22-48.34-12.86-24.34-4.94-49.05-7.9-73.87-8.86h-11.59c-24.83,.96-49.55,3.92-73.9,8.86-16.23,3.64-31.83,8.14-48.39,12.95l-1.1,.28c-2.36,.8-3.95,3.02-3.95,5.52-.01,.21-.01,.42,0,.63,1.79,12.81,4.14,25.45,7.01,37.85,1.71,7.23,3.75,14.69,5.99,22.25,12.37,40.05,32.68,85.3,48.42,110.81,13.8,22.36,41.79,56.73,65.48,80.05,1.66,1.62,3.89,2.53,6.21,2.54,2.32,0,4.56-.91,6.21-2.54,23.71-23.22,51.7-57.58,65.51-80.05,15.73-25.56,36.05-70.81,48.42-110.81,2.24-7.51,4.28-14.96,5.96-22.25,2.87-12.45,5.22-25.09,7.01-37.9Zm-59.19,40.28c-3.98,17.73-10.18,34.89-18.47,51.07-4.56,9.57-9.81,18.8-15.71,27.61,9.21,11.7,17.28,24.24,24.13,37.46l-.72-.83,.44,.83-62.03-70.89c-.88-.8-2.23-.8-3.12,0l-61.92,71,.44-.83-.72,.83c6.84-13.22,14.92-25.76,24.13-37.46-5.9-8.81-11.15-18.03-15.71-27.61-8.7-15.99-14.92-33.21-18.47-51.07-4.33-23.05-2.51-27.77,4.55-31.36,15.54-7.92,69.26-8.28,69.26-8.28,25.67,0,53.42,1.02,69.23,8.28,7.18,3.23,10.02,8.01,4.67,31.25Z"></path></svg>